<?xml version="1.0" encoding="UTF-8"?> <svg xmlns="http://www.w3.org/2000/svg" id="Ebene_1" data-name="Ebene 1" viewBox="0 0 349.6 74.1"><defs><style>.cls-1{fill:#eee}</style></defs><path class="cls-1" d="M19 0a18 18 0 0 0-7 1.3v7.3a13.6 13.6 0 0 1 7-1.9c6.5 0 11.4 5 11.4 12.1v14A17 17 0 0 0 38 18.6C38 8 29.4 0 19 0zM19 30.2c-6.6 0-11.5-4.9-11.5-12.1v-14A17 17 0 0 0 0 18.4C0 29 8.5 37 19 37a18 18 0 0 0 6.8-1.3v-7.4a13.6 13.6 0 0 1-6.8 1.9zM74.5 6.8c4.5 0 7.9 2.2 10.3 6l5.5-4A17.7 17.7 0 0 0 74.5 0a18.5 18.5 0 1 0 0 37 17.7 17.7 0 0 0 15.8-8.9l-5.5-3.9c-2.4 3.8-5.8 6-10.2 6-6.7 0-11.5-4.8-11.5-11.7S67.9 6.7 74.5 6.7zM108.9 7.2h12.5v29.1h7.3v-29h12.6V.6h-32.4v6.5zM175.8 0a18.5 18.5 0 1 0 0 37c10.5 0 19-8 19-18.5S186.3 0 175.8 0zm.1 30.2c-6.6 0-11.5-4.8-11.5-11.7S169.3 6.7 176 6.7s11.5 5 11.5 11.8-5 11.7-11.5 11.7zM230 23h10v3a11.2 11.2 0 0 1-9.5 4.4c-7.2 0-11.9-5-11.9-12s4.6-11.6 11.5-11.6A11.7 11.7 0 0 1 240 12l5.2-4.3a17.8 17.8 0 0 0-15-7.7 18.5 18.5 0 1 0 0 37 19.3 19.3 0 0 0 17-9.7V16.7H230zM282.8 0a18.5 18.5 0 1 0 0 37c10.4 0 19-8 19-18.5S293.2 0 282.8 0zm0 30.2c-6.6 0-11.4-4.8-11.4-11.7s4.8-11.8 11.4-11.8 11.5 5 11.5 11.8-5 11.7-11.5 11.7zM342.3.7v21.2L321.6 0h-2.4v36.3h7.3V14.9l20.6 22h2.5V.7h-7.3zM76.3 59.7V74H74V65l-4 5.3h-.8l-4-5.3V74H63V59.7h.8l5.9 7.8 5.8-7.8zM98.2 62h-7v3.6h5.3v2h-5.2v4.3h7.1v2H89V60h9.2zM119 62.2l-1.6 1.2a3.5 3.5 0 0 0-2.9-1.7c-1.1 0-2.1.6-2.1 1.7s.8 1.4 2 2l1.5.7c2.1 1 3.4 2 3.4 4 0 2.5-2 4-4.7 4a6 6 0 0 1-5.2-3l1.5-1.2a4.4 4.4 0 0 0 3.7 2.2c1.4 0 2.4-.7 2.4-1.9s-.8-1.5-2-2l-1.5-.8c-1.8-.8-3.3-1.9-3.3-3.9 0-2.3 2-3.7 4.4-3.7a5.1 5.1 0 0 1 4.4 2.4zM140 62.2l-1.6 1.2a3.5 3.5 0 0 0-2.9-1.7c-1.1 0-2.1.6-2.1 1.7s.8 1.4 2 2l1.5.7c2.1 1 3.3 2 3.3 4 0 2.5-2 4-4.6 4a6 6 0 0 1-5.3-3L132 70a4.4 4.4 0 0 0 3.6 2.2c1.5 0 2.5-.7 2.5-1.9s-.9-1.5-2-2l-1.6-.8c-1.8-.8-3.2-1.9-3.2-3.9 0-2.3 2-3.7 4.4-3.7a5.1 5.1 0 0 1 4.4 2.4zM162.5 62h-4.7v11.9h-2.2V62h-4.7v-2h11.6zM183 62h-7v3.6h5.3v2H176v4.3h7.2v2h-9.5V60h9.2zM207.3 63l-1.7 1.2a5 5 0 0 0-4.3-2.4 5.2 5.2 0 0 0 0 10.3 5 5 0 0 0 4.3-2.4l1.7 1.2a6.8 6.8 0 0 1-6 3.2 7.2 7.2 0 1 1 0-14.4 6.8 6.8 0 0 1 6 3.2zM230.7 73.9h-2.2v-6.4h-7v6.4h-2.3V60h2.3v5.5h7V60h2.2zM255 60v14.1h-.8l-8.4-9.7V74h-2.3V59.7h.8l8.5 9.6V60zM270 73.9h-2.2V60h2.2zM282.8 60h2.2v13.9h-2.2zm11.5 14h-2.8l-6.4-7.5 5.8-6.5h2.8l-5.8 6.5z"></path><path class="cls-1" d="M175.8 0a18.5 18.5 0 1 0 0 37c10.5 0 19-8 19-18.5S186.3 0 175.8 0zm.1 30.2c-6.6 0-11.5-4.8-11.5-11.7S169.3 6.7 176 6.7s11.5 5 11.5 11.8-5 11.7-11.5 11.7z"></path></svg>